<?xml version="1.0" encoding="UTF-8"?>
<!DOCTYPE svg PUBLIC "-//W3C//DTD SVG 1.1//EN" "http://www.w3.org/Graphics/SVG/1.1/DTD/svg11.dtd">
<svg xmlns="http://www.w3.org/2000/svg" version="1.1" width="500px" height="500px" style="shape-rendering:geometricPrecision; text-rendering:geometricPrecision; image-rendering:optimizeQuality; fill-rule:evenodd; clip-rule:evenodd" xmlns:xlink="http://www.w3.org/1999/xlink">
<g><path style="opacity:0.004" fill="#d7d7da" d="M 294.5,100.5 C 293.209,100.737 292.209,100.404 291.5,99.5C 291.435,99.0618 291.601,98.7284 292,98.5C 292.995,99.0659 293.828,99.7326 294.5,100.5 Z"/></g>
<g><path style="opacity:0.996" fill="#46494d" d="M 314.5,108.5 C 318.151,109.659 321.485,111.326 324.5,113.5C 322.799,113.034 321.299,113.034 320,113.5C 319.676,111.431 318.842,111.098 317.5,112.5C 315.712,111.717 314.712,110.384 314.5,108.5 Z"/></g>
<g><path style="opacity:1" fill="#35383d" d="M 190.5,106.5 C 190.631,107.239 190.464,107.906 190,108.5C 189,108.5 188,108.5 187,108.5C 184.805,111.963 181.639,113.296 177.5,112.5C 181.416,109.71 185.749,107.71 190.5,106.5 Z"/></g>
<g><path style="opacity:0.71" fill="#a6abae" d="M 277.5,116.5 C 277.833,116.5 278.167,116.5 278.5,116.5C 280.553,116.402 282.22,117.069 283.5,118.5C 281.214,118.405 279.214,117.738 277.5,116.5 Z"/></g>
<g><path style="opacity:0.004" fill="#fefffe" d="M 336.5,118.5 C 337.833,119.167 337.833,119.167 336.5,118.5 Z"/></g>
<g><path style="opacity:0.827" fill="#7b7d82" d="M 166.5,118.5 C 166.027,119.906 165.027,120.573 163.5,120.5C 163.973,119.094 164.973,118.427 166.5,118.5 Z"/></g>
<g><path style="opacity:1" fill="#464a51" d="M 199.5,123.5 C 197.819,125.008 195.819,126.008 193.5,126.5C 194.185,124.586 194.685,122.586 195,120.5C 195.908,122.439 197.408,123.439 199.5,123.5 Z"/></g>
<g><path style="opacity:1" fill="#131921" d="M 291.5,99.5 C 292.209,100.404 293.209,100.737 294.5,100.5C 301.629,102.205 308.296,104.872 314.5,108.5C 314.712,110.384 315.712,111.717 317.5,112.5C 318.842,111.098 319.676,111.431 320,113.5C 321.299,113.034 322.799,113.034 324.5,113.5C 328.5,115.5 332.5,117.5 336.5,119.5C 339.688,121.932 342.688,124.599 345.5,127.5C 346.596,130.773 348.929,132.439 352.5,132.5C 352.525,135.179 353.858,136.512 356.5,136.5C 356.67,137.822 356.337,138.989 355.5,140C 356.98,142.668 358.48,142.835 360,140.5C 360.671,141.252 361.504,141.586 362.5,141.5C 362.427,143.027 363.094,144.027 364.5,144.5C 365.5,144.833 366.167,145.5 366.5,146.5C 367.08,148.749 368.413,150.415 370.5,151.5C 371.167,151.5 371.5,151.833 371.5,152.5C 372.419,155.089 374.086,157.089 376.5,158.5C 379.241,160.975 381.241,163.975 382.5,167.5C 382.427,169.027 383.094,170.027 384.5,170.5C 392.591,183.034 398.258,196.701 401.5,211.5C 400.732,210.737 400.232,209.737 400,208.5C 399.756,213.562 399.923,218.396 400.5,223C 399.584,223.374 398.75,223.874 398,224.5C 397.829,229.533 397.329,234.533 396.5,239.5C 395.833,239.833 395.167,240.167 394.5,240.5C 392.965,244.28 390.965,247.78 388.5,251C 389.258,252.364 388.758,253.531 387,254.5C 386.329,253.748 385.496,253.414 384.5,253.5C 384.5,253.167 384.5,252.833 384.5,252.5C 385.165,249.016 385.499,245.349 385.5,241.5C 385.713,236.233 385.046,231.233 383.5,226.5C 382.61,222.166 381.61,217.833 380.5,213.5C 380.286,211.856 380.62,210.356 381.5,209C 380.309,208.302 379.309,207.469 378.5,206.5C 369.588,181.986 355.254,161.32 335.5,144.5C 334.738,142.738 333.404,141.738 331.5,141.5C 331.027,140.094 330.027,139.427 328.5,139.5C 327.738,137.738 326.404,136.738 324.5,136.5C 320.665,134.75 316.999,132.75 313.5,130.5C 313.027,129.094 312.027,128.427 310.5,128.5C 301.788,124.405 292.788,121.071 283.5,118.5C 282.22,117.069 280.553,116.402 278.5,116.5C 279.098,113.269 280.264,112.936 282,115.5C 282.473,112.756 281.64,110.422 279.5,108.5C 276.833,107.167 274.167,105.833 271.5,104.5C 257.494,103.774 243.827,102.774 230.5,101.5C 230.307,97.551 229.807,97.551 229,101.5C 228.517,100.552 228.351,99.552 228.5,98.5C 225.097,99.3631 221.764,100.53 218.5,102C 223.001,100.844 224.335,102.511 222.5,107C 218.991,106.979 215.825,107.812 213,109.5C 210.094,108.22 207.427,109.22 205,112.5C 202.961,112.634 200.794,112.134 198.5,111C 199.647,108.915 198.98,107.415 196.5,106.5C 195.5,107.167 194.5,107.833 193.5,108.5C 192.482,107.807 191.482,107.141 190.5,106.5C 216.279,95.0958 243.279,91.2625 271.5,95C 278.346,95.8791 285.013,97.3791 291.5,99.5 Z"/></g>
<g><path style="opacity:1" fill="#5e6770" d="M 280.5,128.5 C 285.291,127.696 289.624,129.03 293.5,132.5C 292.504,132.414 291.671,132.748 291,133.5C 288.467,132.128 285.8,131.128 283,130.5C 282.536,131.094 282.369,131.761 282.5,132.5C 281.209,131.458 281.209,130.292 282.5,129C 281.906,128.536 281.239,128.369 280.5,128.5 Z"/></g>
<g><path style="opacity:0.282" fill="#adaeb2" d="M 310.5,128.5 C 312.027,128.427 313.027,129.094 313.5,130.5C 311.973,130.573 310.973,129.906 310.5,128.5 Z"/></g>
<g><path style="opacity:0.99" fill="#626469" d="M 345.5,127.5 C 348.117,128.786 350.45,130.453 352.5,132.5C 348.929,132.439 346.596,130.773 345.5,127.5 Z"/></g>
<g><path style="opacity:0.922" fill="#64686e" d="M 150.5,130.5 C 149.415,132.587 147.749,133.92 145.5,134.5C 146.585,132.413 148.251,131.08 150.5,130.5 Z"/></g>
<g><path style="opacity:1" fill="#111720" d="M 278.5,116.5 C 278.167,116.5 277.833,116.5 277.5,116.5C 272.703,116.477 268.036,115.811 263.5,114.5C 254.167,113.167 244.833,113.167 235.5,114.5C 230.924,114.438 226.591,115.105 222.5,116.5C 214.977,119.005 207.311,121.339 199.5,123.5C 197.408,123.439 195.908,122.439 195,120.5C 194.685,122.586 194.185,124.586 193.5,126.5C 186.189,130.798 178.856,135.131 171.5,139.5C 169.973,139.427 168.973,140.094 168.5,141.5C 168.167,142.5 167.5,143.167 166.5,143.5C 164.473,143.338 162.473,143.505 160.5,144C 160.957,144.414 161.291,144.914 161.5,145.5C 160.101,147.156 158.268,148.489 156,149.5C 155.517,150.448 155.351,151.448 155.5,152.5C 154.448,152.351 153.448,152.517 152.5,153C 151.167,153.667 151.167,154.333 152.5,155C 151.5,155.333 150.5,155.667 149.5,156C 150.252,156.671 150.586,157.504 150.5,158.5C 144.448,165.885 138.781,173.552 133.5,181.5C 132.5,181.5 131.5,181.5 130.5,181.5C 130.5,183.167 130.5,184.833 130.5,186.5C 121.354,204.911 116.021,224.411 114.5,245C 114.656,249.136 115.823,252.969 118,256.5C 121.147,258.65 124.313,260.65 127.5,262.5C 128.68,264.913 130.68,265.913 133.5,265.5C 137.007,267.754 140.673,269.754 144.5,271.5C 145.113,275.937 145.78,280.27 146.5,284.5C 146.5,285.167 146.5,285.833 146.5,286.5C 145.549,289.562 146.049,292.562 148,295.5C 150.761,293.983 152.594,294.816 153.5,298C 152.5,298.5 151.5,299 150.5,299.5C 148.161,298.276 145.828,298.276 143.5,299.5C 145.022,301.156 144.689,302.323 142.5,303C 139.183,303.498 135.85,303.665 132.5,303.5C 132.5,304.833 132.5,306.167 132.5,307.5C 135.85,307.335 139.183,307.502 142.5,308C 143.591,310.064 143.758,312.231 143,314.5C 136.7,313.995 130.533,312.995 124.5,311.5C 124.5,310.167 124.5,308.833 124.5,307.5C 123.5,307.5 122.5,307.5 121.5,307.5C 121.5,306.167 121.5,304.833 121.5,303.5C 119.833,303.5 118.167,303.5 116.5,303.5C 116.725,307.056 115.892,307.39 114,304.5C 111.182,305.591 108.349,305.591 105.5,304.5C 105.915,301.632 104.915,299.465 102.5,298C 102.833,297.667 103.167,297.333 103.5,297C 102.563,296.308 101.897,296.475 101.5,297.5C 101.167,297.5 100.833,297.5 100.5,297.5C 98.5445,292.345 97.2112,287.011 96.5,281.5C 96.7845,279.585 96.4511,277.919 95.5,276.5C 93.9864,268.125 93.3197,259.625 93.5,251C 93.3371,241.951 94.0038,233.117 95.5,224.5C 96.913,221.781 97.5797,218.781 97.5,215.5C 97.366,213.708 97.6993,212.042 98.5,210.5C 100.074,208.898 100.741,206.898 100.5,204.5C 102.673,196.49 105.673,188.824 109.5,181.5C 110.906,181.027 111.573,180.027 111.5,178.5C 112.508,176.456 113.508,174.456 114.5,172.5C 115.906,172.027 116.573,171.027 116.5,169.5C 119.032,167.448 120.699,164.782 121.5,161.5C 122.906,158.586 124.906,156.086 127.5,154C 127.167,153.667 126.833,153.333 126.5,153C 129.692,150.972 132.359,148.472 134.5,145.5C 137.513,144.662 140.18,143.162 142.5,141C 141.833,140.667 141.167,140.333 140.5,140C 142.373,138.296 144.04,136.463 145.5,134.5C 147.749,133.92 149.415,132.587 150.5,130.5C 154.258,126.408 158.591,123.074 163.5,120.5C 165.027,120.573 166.027,119.906 166.5,118.5C 169.678,115.742 173.345,113.742 177.5,112.5C 181.639,113.296 184.805,111.963 187,108.5C 188,108.5 189,108.5 190,108.5C 190.464,107.906 190.631,107.239 190.5,106.5C 191.482,107.141 192.482,107.807 193.5,108.5C 194.5,107.833 195.5,107.167 196.5,106.5C 198.98,107.415 199.647,108.915 198.5,111C 200.794,112.134 202.961,112.634 205,112.5C 207.427,109.22 210.094,108.22 213,109.5C 215.825,107.812 218.991,106.979 222.5,107C 224.335,102.511 223.001,100.844 218.5,102C 221.764,100.53 225.097,99.3631 228.5,98.5C 228.351,99.552 228.517,100.552 229,101.5C 229.807,97.551 230.307,97.551 230.5,101.5C 243.827,102.774 257.494,103.774 271.5,104.5C 274.167,105.833 276.833,107.167 279.5,108.5C 281.64,110.422 282.473,112.756 282,115.5C 280.264,112.936 279.098,113.269 278.5,116.5 Z"/></g>
<g><path style="opacity:0.267" fill="#b8bcbf" d="M 235.5,114.5 C 231.409,115.895 227.076,116.562 222.5,116.5C 226.591,115.105 230.924,114.438 235.5,114.5 Z"/></g>
<g><path style="opacity:0.405" fill="#878a91" d="M 235.5,114.5 C 244.833,113.167 254.167,113.167 263.5,114.5C 253.957,114.567 244.624,114.567 235.5,114.5 Z"/></g>
<g><path style="opacity:1" fill="#515863" d="M 280.5,128.5 C 278.492,131.478 275.659,134.478 272,137.5C 271.594,134.234 270.094,133.901 267.5,136.5C 266.933,139.702 264.6,141.369 260.5,141.5C 261.591,138.572 263.591,136.406 266.5,135C 271.3,133.011 275.966,130.845 280.5,128.5 Z"/></g>
<g><path style="opacity:1" fill="#323a46" d="M 293.5,132.5 C 296.091,133.254 297.924,134.921 299,137.5C 299.667,142.5 299.667,147.5 299,152.5C 296.186,153.966 293.353,155.466 290.5,157C 289.177,157.816 288.511,158.983 288.5,160.5C 288.167,160.5 287.833,160.5 287.5,160.5C 287.167,160.5 286.833,160.5 286.5,160.5C 286.5,151.167 286.5,141.833 286.5,132.5C 285.167,132.5 283.833,132.5 282.5,132.5C 282.369,131.761 282.536,131.094 283,130.5C 285.8,131.128 288.467,132.128 291,133.5C 291.671,132.748 292.504,132.414 293.5,132.5 Z"/></g>
<g><path style="opacity:0.573" fill="#9a9c9f" d="M 324.5,136.5 C 326.404,136.738 327.738,137.738 328.5,139.5C 326.596,139.262 325.262,138.262 324.5,136.5 Z"/></g>
<g><path style="opacity:1" fill="#41454a" d="M 352.5,132.5 C 356.456,134.788 359.789,137.788 362.5,141.5C 361.504,141.586 360.671,141.252 360,140.5C 358.48,142.835 356.98,142.668 355.5,140C 356.337,138.989 356.67,137.822 356.5,136.5C 353.858,136.512 352.525,135.179 352.5,132.5 Z"/></g>
<g><path style="opacity:0.004" fill="#d4dddf" d="M 171.5,139.5 C 171.027,140.906 170.027,141.573 168.5,141.5C 168.973,140.094 169.973,139.427 171.5,139.5 Z"/></g>
<g><path style="opacity:0.373" fill="#abadb1" d="M 328.5,139.5 C 330.027,139.427 331.027,140.094 331.5,141.5C 329.973,141.573 328.973,140.906 328.5,139.5 Z"/></g>
<g><path style="opacity:0.992" fill="#353841" d="M 240.5,139.5 C 244.565,141.233 247.232,144.233 248.5,148.5C 246.567,148.271 244.9,147.438 243.5,146C 244.654,145.086 244.487,144.253 243,143.5C 242.333,144.833 241.667,144.833 241,143.5C 241.355,142.041 241.189,140.707 240.5,139.5 Z"/></g>
<g><path style="opacity:0.847" fill="#83858c" d="M 331.5,141.5 C 333.404,141.738 334.738,142.738 335.5,144.5C 333.596,144.262 332.262,143.262 331.5,141.5 Z"/></g>
<g><path style="opacity:1" fill="#43464d" d="M 145.5,134.5 C 144.04,136.463 142.373,138.296 140.5,140C 141.167,140.333 141.833,140.667 142.5,141C 140.18,143.162 137.513,144.662 134.5,145.5C 137.167,140.833 140.833,137.167 145.5,134.5 Z"/></g>
<g><path style="opacity:1" fill="#6f767f" d="M 237.5,138.5 C 236.833,138.5 236.167,138.5 235.5,138.5C 231.658,139.393 229.158,141.726 228,145.5C 226.667,144.167 225.333,144.167 224,145.5C 223.667,149.5 223.333,153.5 223,157.5C 221.556,159.155 219.722,159.822 217.5,159.5C 219.094,158.017 220.76,156.517 222.5,155C 220.577,142.948 225.577,137.448 237.5,138.5 Z"/></g>
<g><path style="opacity:0.995" fill="#595b62" d="M 166.5,143.5 C 161.193,148.472 155.86,153.472 150.5,158.5C 150.586,157.504 150.252,156.671 149.5,156C 150.5,155.667 151.5,155.333 152.5,155C 151.167,154.333 151.167,153.667 152.5,153C 153.448,152.517 154.448,152.351 155.5,152.5C 155.351,151.448 155.517,150.448 156,149.5C 158.268,148.489 160.101,147.156 161.5,145.5C 161.291,144.914 160.957,144.414 160.5,144C 162.473,143.505 164.473,143.338 166.5,143.5 Z"/></g>
<g><path style="opacity:0.592" fill="#87888c" d="M 362.5,141.5 C 363.906,141.973 364.573,142.973 364.5,144.5C 363.094,144.027 362.427,143.027 362.5,141.5 Z"/></g>
<g><path style="opacity:1" fill="#171d26" d="M 235.5,138.5 C 236.167,138.5 236.833,138.5 237.5,138.5C 238.791,138.263 239.791,138.596 240.5,139.5C 241.189,140.707 241.355,142.041 241,143.5C 241.667,144.833 242.333,144.833 243,143.5C 244.487,144.253 244.654,145.086 243.5,146C 244.9,147.438 246.567,148.271 248.5,148.5C 249.648,152.981 249.815,157.648 249,162.5C 248.184,163.823 247.017,164.489 245.5,164.5C 243.833,164.5 242.167,164.5 240.5,164.5C 240.5,165.5 240.5,166.5 240.5,167.5C 239.5,168.167 238.5,168.833 237.5,169.5C 236.167,169.5 235.5,168.833 235.5,167.5C 235.5,157.833 235.5,148.167 235.5,138.5 Z"/></g>
<g><path style="opacity:0.839" fill="#94949a" d="M 366.5,146.5 C 368.587,147.585 369.92,149.251 370.5,151.5C 368.413,150.415 367.08,148.749 366.5,146.5 Z"/></g>
<g><path style="opacity:1" fill="#35404e" d="M 318.5,149.5 C 317.504,149.414 316.671,149.748 316,150.5C 314.951,148.893 313.451,148.227 311.5,148.5C 310.843,172.524 311.51,196.19 313.5,219.5C 310.322,222.258 306.655,224.258 302.5,225.5C 301.5,225.5 300.5,225.5 299.5,225.5C 299.5,220.167 299.5,214.833 299.5,209.5C 299.5,192.167 299.5,174.833 299.5,157.5C 301.409,150.937 305.909,147.604 313,147.5C 315.221,147.393 317.054,148.06 318.5,149.5 Z"/></g>
<g><path style="opacity:0.875" fill="#8a8d90" d="M 371.5,152.5 C 373.914,153.911 375.581,155.911 376.5,158.5C 374.086,157.089 372.419,155.089 371.5,152.5 Z"/></g>
<g><path style="opacity:1" fill="#10151f" d="M 318.5,149.5 C 322.797,151.418 325.13,154.751 325.5,159.5C 325.5,175.5 325.5,191.5 325.5,207.5C 325.5,209.167 325.5,210.833 325.5,212.5C 325.167,213.167 324.833,213.833 324.5,214.5C 321.26,216.951 317.593,218.618 313.5,219.5C 311.51,196.19 310.843,172.524 311.5,148.5C 313.451,148.227 314.951,148.893 316,150.5C 316.671,149.748 317.504,149.414 318.5,149.5 Z"/></g>
<g><path style="opacity:0.015" fill="#fdfeff" d="M 325.5,159.5 C 326.167,174.5 326.833,189.5 327.5,204.5C 327.068,205.71 326.401,206.71 325.5,207.5C 325.5,191.5 325.5,175.5 325.5,159.5 Z"/></g>
<g><path style="opacity:1" fill="#232e3c" d="M 280.5,128.5 C 281.239,128.369 281.906,128.536 282.5,129C 281.209,130.292 281.209,131.458 282.5,132.5C 278.572,134.592 275.406,137.592 273,141.5C 272.822,153.076 272.322,164.576 271.5,176C 272.416,176.278 273.082,176.778 273.5,177.5C 272.508,177.328 271.842,177.662 271.5,178.5C 268.485,180.674 265.151,182.341 261.5,183.5C 260.504,169.677 260.171,155.677 260.5,141.5C 264.6,141.369 266.933,139.702 267.5,136.5C 270.094,133.901 271.594,134.234 272,137.5C 275.659,134.478 278.492,131.478 280.5,128.5 Z"/></g>
<g><path style="opacity:1" fill="#5c6064" d="M 245.5,164.5 C 244.035,165.737 242.368,166.737 240.5,167.5C 240.5,166.5 240.5,165.5 240.5,164.5C 242.167,164.5 243.833,164.5 245.5,164.5 Z"/></g>
<g><path style="opacity:1" fill="#686b6f" d="M 121.5,161.5 C 120.699,164.782 119.032,167.448 116.5,169.5C 117.169,166.151 118.836,163.484 121.5,161.5 Z"/></g>
<g><path style="opacity:1" fill="#3e4a5a" d="M 235.5,138.5 C 235.5,148.167 235.5,157.833 235.5,167.5C 233.855,168.479 232.521,169.812 231.5,171.5C 230.549,170.674 229.549,170.508 228.5,171C 227.777,173.018 226.777,174.852 225.5,176.5C 225.011,177.995 224.345,179.329 223.5,180.5C 222.67,190.659 222.17,200.992 222,211.5C 213.727,215.719 205.561,220.052 197.5,224.5C 197.333,207.497 197.5,190.497 198,173.5C 198.662,172.016 199.496,170.683 200.5,169.5C 205.665,165.414 211.332,162.08 217.5,159.5C 219.722,159.822 221.556,159.155 223,157.5C 223.333,153.5 223.667,149.5 224,145.5C 225.333,144.167 226.667,144.167 228,145.5C 229.158,141.726 231.658,139.393 235.5,138.5 Z"/></g>
<g><path style="opacity:0.475" fill="#95969c" d="M 382.5,167.5 C 383.906,167.973 384.573,168.973 384.5,170.5C 383.094,170.027 382.427,169.027 382.5,167.5 Z"/></g>
<g><path style="opacity:1" fill="#7a7f89" d="M 235.5,167.5 C 235.5,168.833 236.167,169.5 237.5,169.5C 233.508,171.83 229.508,174.163 225.5,176.5C 226.777,174.852 227.777,173.018 228.5,171C 229.549,170.508 230.549,170.674 231.5,171.5C 232.521,169.812 233.855,168.479 235.5,167.5 Z"/></g>
<g><path style="opacity:0.506" fill="#888a8e" d="M 116.5,169.5 C 116.573,171.027 115.906,172.027 114.5,172.5C 114.427,170.973 115.094,169.973 116.5,169.5 Z"/></g>
<g><path style="opacity:1" fill="#4f5b6a" d="M 260.5,141.5 C 260.171,155.677 260.504,169.677 261.5,183.5C 257.543,186.122 253.876,189.122 250.5,192.5C 249.833,192.5 249.5,192.833 249.5,193.5C 248.819,191.842 247.985,190.175 247,188.5C 246.653,190.18 245.653,191.18 244,191.5C 242.433,190.144 240.6,189.477 238.5,189.5C 238.869,191.993 238.203,192.66 236.5,191.5C 236.5,186.167 236.5,180.833 236.5,175.5C 236.84,173.321 237.84,171.488 239.5,170C 245.965,166.365 252.298,162.532 258.5,158.5C 259.167,152.681 259.833,147.014 260.5,141.5 Z"/></g>
<g><path style="opacity:1" fill="#b3bcc5" d="M 200.5,169.5 C 199.496,170.683 198.662,172.016 198,173.5C 197.5,190.497 197.333,207.497 197.5,224.5C 197.5,224.833 197.5,225.167 197.5,225.5C 194.752,227.601 191.752,229.434 188.5,231C 187.219,232.409 186.219,233.909 185.5,235.5C 185.83,215.993 185.497,196.659 184.5,177.5C 189.516,174.326 194.849,171.659 200.5,169.5 Z"/></g>
<g><path style="opacity:1" fill="#0d141e" d="M 282.5,132.5 C 283.833,132.5 285.167,132.5 286.5,132.5C 286.5,141.833 286.5,151.167 286.5,160.5C 286.5,161.167 286.5,161.833 286.5,162.5C 285.335,209.332 285.168,256.332 286,303.5C 287.59,305.504 287.424,307.504 285.5,309.5C 282.211,311.616 279.044,313.949 276,316.5C 275.617,315.944 275.117,315.611 274.5,315.5C 273.833,315.5 273.167,315.5 272.5,315.5C 272.5,274.833 272.5,234.167 272.5,193.5C 273.449,188.26 273.782,182.927 273.5,177.5C 273.082,176.778 272.416,176.278 271.5,176C 272.322,164.576 272.822,153.076 273,141.5C 275.406,137.592 278.572,134.592 282.5,132.5 Z"/></g>
<g><path style="opacity:0.176" fill="#bec1c2" d="M 111.5,178.5 C 111.573,180.027 110.906,181.027 109.5,181.5C 109.427,179.973 110.094,178.973 111.5,178.5 Z"/></g>
<g><path style="opacity:1" fill="#6a6d74" d="M 133.5,181.5 C 132.89,183.434 131.89,185.101 130.5,186.5C 130.5,184.833 130.5,183.167 130.5,181.5C 131.5,181.5 132.5,181.5 133.5,181.5 Z"/></g>
<g><path style="opacity:0.008" fill="#ebecee" d="M 176.5,182.5 C 175.71,183.401 174.71,184.068 173.5,184.5C 173.821,182.952 174.821,182.285 176.5,182.5 Z"/></g>
<g><path style="opacity:0.574" fill="#7a7d83" d="M 271.5,178.5 C 271.842,177.662 272.508,177.328 273.5,177.5C 273.782,182.927 273.449,188.26 272.5,193.5C 271.833,193.5 271.167,193.5 270.5,193.5C 272.055,190.981 272.722,188.148 272.5,185C 272.496,182.639 272.163,180.473 271.5,178.5 Z"/></g>
<g><path style="opacity:1" fill="#c4ccd3" d="M 299.5,157.5 C 299.5,174.833 299.5,192.167 299.5,209.5C 295.084,211.206 290.751,213.206 286.5,215.5C 286.5,197.833 286.5,180.167 286.5,162.5C 286.5,161.833 286.5,161.167 286.5,160.5C 286.833,160.5 287.167,160.5 287.5,160.5C 287.833,161.833 288.167,161.833 288.5,160.5C 292.198,159.627 295.865,158.627 299.5,157.5 Z"/></g>
<g><path style="opacity:1" fill="#101722" d="M 183.5,178.5 C 184.497,197.659 184.83,216.993 184.5,236.5C 184.83,255.341 184.497,274.007 183.5,292.5C 182.508,292.672 181.842,292.338 181.5,291.5C 182.598,290.603 182.598,289.77 181.5,289C 177.953,288.263 175.12,286.43 173,283.5C 172.5,261.503 172.333,239.503 172.5,217.5C 172.5,207.5 172.5,197.5 172.5,187.5C 172.557,186.391 172.89,185.391 173.5,184.5C 174.71,184.068 175.71,183.401 176.5,182.5C 178.336,180.412 180.669,179.079 183.5,178.5 Z"/></g>
<g><path style="opacity:1" fill="#1e2835" d="M 270.5,193.5 C 271.167,193.5 271.833,193.5 272.5,193.5C 272.5,234.167 272.5,274.833 272.5,315.5C 271.167,315.5 269.833,315.5 268.5,315.5C 268.567,316.959 268.234,318.292 267.5,319.5C 266.486,320.674 265.153,321.34 263.5,321.5C 262.5,321.5 261.5,321.5 260.5,321.5C 260.5,281.5 260.5,241.5 260.5,201.5C 260.5,200.833 260.5,200.167 260.5,199.5C 260.414,198.504 260.748,197.671 261.5,197C 264.521,195.82 267.521,194.654 270.5,193.5 Z"/></g>
<g><path style="opacity:1" fill="#3b4959" d="M 249.5,193.5 C 248.528,202.75 248.195,212.083 248.5,221.5C 244.29,224.303 242.457,228.303 243,233.5C 240.447,236.142 239.78,239.142 241,242.5C 240,242.5 239,242.5 238,242.5C 237.885,228.543 237.385,214.543 236.5,200.5C 236.5,197.5 236.5,194.5 236.5,191.5C 238.203,192.66 238.869,191.993 238.5,189.5C 240.6,189.477 242.433,190.144 244,191.5C 245.653,191.18 246.653,190.18 247,188.5C 247.985,190.175 248.819,191.842 249.5,193.5 Z"/></g>
<g><path style="opacity:0.82" fill="#8f9297" d="M 100.5,204.5 C 100.741,206.898 100.074,208.898 98.5,210.5C 98.595,208.214 99.2616,206.214 100.5,204.5 Z"/></g>
<g><path style="opacity:1" fill="#121821" d="M 345.5,200.5 C 348.764,201.927 351.264,204.261 353,207.5C 353.181,216.744 353.681,225.911 354.5,235C 354.268,246.964 353.935,259.13 353.5,271.5C 353.586,272.496 353.252,273.329 352.5,274C 348.114,276.193 343.78,278.36 339.5,280.5C 338.337,254.67 338.17,228.67 339,202.5C 340.789,200.771 342.956,200.104 345.5,200.5 Z"/></g>
<g><path style="opacity:0.973" fill="#71767b" d="M 378.5,206.5 C 379.309,207.469 380.309,208.302 381.5,209C 380.62,210.356 380.286,211.856 380.5,213.5C 379.388,211.401 378.721,209.067 378.5,206.5 Z"/></g>
<g><path style="opacity:1" fill="#676f79" d="M 183.5,178.5 C 183.5,177.833 183.833,177.5 184.5,177.5C 185.497,196.659 185.83,215.993 185.5,235.5C 185.5,235.833 185.5,236.167 185.5,236.5C 185.167,236.5 184.833,236.5 184.5,236.5C 184.83,216.993 184.497,197.659 183.5,178.5 Z"/></g>
<g><path style="opacity:1" fill="#222d3b" d="M 345.5,200.5 C 342.956,200.104 340.789,200.771 339,202.5C 338.17,228.67 338.337,254.67 339.5,280.5C 335.182,283.326 330.516,285.659 325.5,287.5C 325.83,269.992 325.497,252.659 324.5,235.5C 325.288,229.915 325.788,224.248 326,218.5C 326.5,218 327,217.5 327.5,217C 326.901,215.378 326.234,213.878 325.5,212.5C 325.5,210.833 325.5,209.167 325.5,207.5C 326.401,206.71 327.068,205.71 327.5,204.5C 330.526,200.649 334.526,198.315 339.5,197.5C 341.78,198.136 343.78,199.136 345.5,200.5 Z"/></g>
<g><path style="opacity:0.776" fill="#9799a3" d="M 401.5,211.5 C 402.738,213.214 403.405,215.214 403.5,217.5C 401.926,215.898 401.259,213.898 401.5,211.5 Z"/></g>
<g><path style="opacity:1" fill="#687481" d="M 172.5,187.5 C 172.5,197.5 172.5,207.5 172.5,217.5C 171.174,240.402 171.174,263.402 172.5,286.5C 167.484,284.659 162.818,282.326 158.5,279.5C 158.333,261.497 158.5,243.497 159,225.5C 159.513,224.473 160.013,223.473 160.5,222.5C 163.562,219.881 167.062,217.881 171,216.5C 171.17,206.658 171.67,196.991 172.5,187.5 Z"/></g>
<g><path style="opacity:0.557" fill="#989da0" d="M 97.5,215.5 C 97.5797,218.781 96.913,221.781 95.5,224.5C 95.4203,221.219 96.087,218.219 97.5,215.5 Z"/></g>
<g><path style="opacity:1" fill="#bdc4cb" d="M 236.5,175.5 C 236.5,180.833 236.5,186.167 236.5,191.5C 236.5,194.5 236.5,197.5 236.5,200.5C 236.814,213.913 236.481,227.246 235.5,240.5C 231.527,242.487 227.527,244.487 223.5,246.5C 223.832,235.813 223.499,225.146 222.5,214.5C 221.893,214.624 221.56,214.957 221.5,215.5C 218.996,216.584 216.663,217.917 214.5,219.5C 210.016,221.243 205.683,223.243 201.5,225.5C 200.368,224.646 199.035,224.646 197.5,225.5C 197.5,225.167 197.5,224.833 197.5,224.5C 205.561,220.052 213.727,215.719 222,211.5C 222.17,200.992 222.67,190.659 223.5,180.5C 223.334,185.844 223.501,191.177 224,196.5C 227.559,194.136 231.392,192.469 235.5,191.5C 235.179,185.974 235.512,180.64 236.5,175.5 Z"/></g>
<g><path style="opacity:1" fill="#252e3a" d="M 214.5,219.5 C 213.496,220.683 212.662,222.016 212,223.5C 211.667,223.167 211.333,222.833 211,222.5C 210.829,249.739 210.329,276.905 209.5,304C 210.253,305.487 211.086,305.654 212,304.5C 212.47,305.577 212.303,306.577 211.5,307.5C 206.459,305.563 201.626,303.229 197,300.5C 197.599,279.657 197.432,258.99 196.5,238.5C 196.607,235.433 197.107,232.433 198,229.5C 198.66,227.676 199.827,226.343 201.5,225.5C 205.683,223.243 210.016,221.243 214.5,219.5 Z"/></g>
<g><path style="opacity:0.997" fill="#c9d0d6" d="M 160.5,222.5 C 160.013,223.473 159.513,224.473 159,225.5C 158.5,243.497 158.333,261.497 158.5,279.5C 154.615,277.974 150.781,276.308 147,274.5C 146.502,277.817 146.335,281.15 146.5,284.5C 145.78,280.27 145.113,275.937 144.5,271.5C 144.017,258.661 144.517,245.661 146,232.5C 149.197,226.816 154.03,223.483 160.5,222.5 Z"/></g>
<g><path style="opacity:1" fill="#49525b" d="M 221.5,215.5 C 221.56,214.957 221.893,214.624 222.5,214.5C 223.499,225.146 223.832,235.813 223.5,246.5C 222.811,236.737 222.145,226.404 221.5,215.5 Z"/></g>
<g><path style="opacity:1" fill="#404b58" d="M 325.5,212.5 C 326.234,213.878 326.901,215.378 327.5,217C 327,217.5 326.5,218 326,218.5C 325.788,224.248 325.288,229.915 324.5,235.5C 320.527,237.487 316.527,239.487 312.5,241.5C 312.5,236.5 312.5,231.5 312.5,226.5C 313.072,224.745 313.906,223.078 315,221.5C 318.088,219.706 321.254,218.039 324.5,216.5C 325.773,215.743 325.773,215.077 324.5,214.5C 324.833,213.833 325.167,213.167 325.5,212.5 Z"/></g>
<g><path style="opacity:1" fill="#a3aeb9" d="M 250.5,192.5 C 249.537,196.796 249.371,201.129 250,205.5C 253.467,203.404 256.967,201.404 260.5,199.5C 260.5,200.167 260.5,200.833 260.5,201.5C 259.503,220.659 259.17,239.993 259.5,259.5C 258.71,258.391 258.21,257.058 258,255.5C 257.667,258.167 257.333,260.833 257,263.5C 256.667,262.167 256.333,260.833 256,259.5C 255.667,262.167 255.333,264.833 255,267.5C 253.605,266.185 252.605,266.519 252,268.5C 250.095,258.794 248.928,249.128 248.5,239.5C 248.5,233.5 248.5,227.5 248.5,221.5C 248.195,212.083 248.528,202.75 249.5,193.5C 249.5,192.833 249.833,192.5 250.5,192.5 Z"/></g>
<g><path style="opacity:0.518" fill="#a8aaae" d="M 405.5,230.5 C 406.249,231.531 406.915,232.698 407.5,234C 406.594,235.699 406.261,237.533 406.5,239.5C 405.523,236.713 405.19,233.713 405.5,230.5 Z"/></g>
<g><path style="opacity:0.005" fill="#d2d5d6" d="M 383.5,226.5 C 385.046,231.233 385.713,236.233 385.5,241.5C 385.499,245.349 385.165,249.016 384.5,252.5C 384.666,245.492 384.5,238.492 384,231.5C 382.964,229.701 382.797,228.034 383.5,226.5 Z"/></g>
<g><path style="opacity:1" fill="#596574" d="M 299.5,209.5 C 299.5,214.833 299.5,220.167 299.5,225.5C 300.5,225.5 301.5,225.5 302.5,225.5C 302.267,227.062 301.6,228.395 300.5,229.5C 299.883,229.611 299.383,229.944 299,230.5C 298.5,236.825 298.334,243.158 298.5,249.5C 294.583,251.375 290.75,253.375 287,255.5C 286.5,242.171 286.333,228.837 286.5,215.5C 290.751,213.206 295.084,211.206 299.5,209.5 Z"/></g>
<g><path style="opacity:0.999" fill="#c3cad1" d="M 312.5,226.5 C 312.5,231.5 312.5,236.5 312.5,241.5C 312.5,259.167 312.5,276.833 312.5,294.5C 312.5,295.167 312.5,295.833 312.5,296.5C 308.167,298.5 303.833,300.5 299.5,302.5C 299.83,284.659 299.497,266.992 298.5,249.5C 298.334,243.158 298.5,236.825 299,230.5C 299.383,229.944 299.883,229.611 300.5,229.5C 299.416,235.783 299.249,242.116 300,248.5C 303.221,245.306 307.054,243.306 311.5,242.5C 311.179,236.974 311.512,231.64 312.5,226.5 Z"/></g>
<g><path style="opacity:1" fill="#0d1520" d="M 221.5,215.5 C 222.145,226.404 222.811,236.737 223.5,246.5C 227.527,244.487 231.527,242.487 235.5,240.5C 236.497,262.327 236.831,284.327 236.5,306.5C 236.5,310.833 236.5,315.167 236.5,319.5C 235.5,319.5 234.5,319.5 233.5,319.5C 232.37,317.685 231.704,315.685 231.5,313.5C 229.322,314.204 227.322,314.537 225.5,314.5C 224.586,312.336 223.419,310.336 222,308.5C 221.667,309.167 221.333,309.833 221,310.5C 219.622,308.787 217.955,307.453 216,306.5C 215.517,307.448 215.351,308.448 215.5,309.5C 215.167,309.5 214.833,309.5 214.5,309.5C 214.027,308.094 213.027,307.427 211.5,307.5C 212.303,306.577 212.47,305.577 212,304.5C 211.086,305.654 210.253,305.487 209.5,304C 210.329,276.905 210.829,249.739 211,222.5C 211.333,222.833 211.667,223.167 212,223.5C 212.662,222.016 213.496,220.683 214.5,219.5C 216.663,217.917 218.996,216.584 221.5,215.5 Z"/></g>
<g><path style="opacity:1" fill="#0c141e" d="M 324.5,235.5 C 325.497,252.659 325.83,269.992 325.5,287.5C 321.653,290.593 317.32,292.926 312.5,294.5C 312.5,276.833 312.5,259.167 312.5,241.5C 316.527,239.487 320.527,237.487 324.5,235.5 Z"/></g>
<g><path style="opacity:1" fill="#27313e" d="M 286.5,162.5 C 286.5,180.167 286.5,197.833 286.5,215.5C 286.333,228.837 286.5,242.171 287,255.5C 290.75,253.375 294.583,251.375 298.5,249.5C 299.497,266.992 299.83,284.659 299.5,302.5C 295.117,305.358 290.45,307.692 285.5,309.5C 287.424,307.504 287.59,305.504 286,303.5C 285.168,256.332 285.335,209.332 286.5,162.5 Z"/></g>
<g><path style="opacity:1" fill="#96a2af" d="M 248.5,239.5 C 248.928,249.128 250.095,258.794 252,268.5C 252.605,266.519 253.605,266.185 255,267.5C 255.333,264.833 255.667,262.167 256,259.5C 256.333,260.833 256.667,262.167 257,263.5C 257.333,260.833 257.667,258.167 258,255.5C 258.21,257.058 258.71,258.391 259.5,259.5C 259.832,271.518 259.499,283.518 258.5,295.5C 255.114,297.193 251.78,298.86 248.5,300.5C 248.5,280.167 248.5,259.833 248.5,239.5 Z"/></g>
<g><path style="opacity:0.49" fill="#96979b" d="M 384.5,253.5 C 384.573,255.027 383.906,256.027 382.5,256.5C 382.427,254.973 383.094,253.973 384.5,253.5 Z"/></g>
<g><path style="opacity:0.008" fill="#eaebec" d="M 381.5,257.5 C 380.71,258.401 379.71,259.068 378.5,259.5C 378.821,257.952 379.821,257.285 381.5,257.5 Z"/></g>
<g><path style="opacity:0.475" fill="#888d90" d="M 184.5,236.5 C 184.833,236.5 185.167,236.5 185.5,236.5C 185.833,255.512 185.5,274.512 184.5,293.5C 183.893,293.376 183.56,293.043 183.5,292.5C 184.497,274.007 184.83,255.341 184.5,236.5 Z"/></g>
<g><path style="opacity:1" fill="#6d6e74" d="M 127.5,262.5 C 129.819,262.992 131.819,263.992 133.5,265.5C 130.68,265.913 128.68,264.913 127.5,262.5 Z"/></g>
<g><path style="opacity:1" fill="#2a323d" d="M 172.5,217.5 C 172.333,239.503 172.5,261.503 173,283.5C 175.12,286.43 177.953,288.263 181.5,289C 182.598,289.77 182.598,290.603 181.5,291.5C 178.24,290.226 175.24,288.56 172.5,286.5C 171.174,263.402 171.174,240.402 172.5,217.5 Z"/></g>
<g><path style="opacity:0.314" fill="#b9bbc2" d="M 405.5,271.5 C 406.708,274.072 406.375,276.406 404.5,278.5C 404.198,275.941 404.532,273.607 405.5,271.5 Z"/></g>
<g><path style="opacity:0.549" fill="#a8aaae" d="M 95.5,276.5 C 96.4511,277.919 96.7845,279.585 96.5,281.5C 95.0719,279.926 94.7386,278.259 95.5,276.5 Z"/></g>
<g><path style="opacity:1" fill="#4c5867" d="M 353.5,271.5 C 354.167,271.5 354.833,271.5 355.5,271.5C 353.831,276.622 352.997,281.956 353,287.5C 351.833,289.333 350.667,291.167 349.5,293C 336.652,299.589 323.985,306.423 311.5,313.5C 311.679,307.987 312.012,302.321 312.5,296.5C 312.5,295.833 312.5,295.167 312.5,294.5C 317.32,292.926 321.653,290.593 325.5,287.5C 330.516,285.659 335.182,283.326 339.5,280.5C 343.78,278.36 348.114,276.193 352.5,274C 353.252,273.329 353.586,272.496 353.5,271.5 Z"/></g>
<g><path style="opacity:1" fill="#333f4f" d="M 236.5,200.5 C 237.385,214.543 237.885,228.543 238,242.5C 239,242.5 240,242.5 241,242.5C 239.78,239.142 240.447,236.142 243,233.5C 242.457,228.303 244.29,224.303 248.5,221.5C 248.5,227.5 248.5,233.5 248.5,239.5C 248.5,259.833 248.5,280.167 248.5,300.5C 248.5,300.833 248.5,301.167 248.5,301.5C 244.251,302.626 240.251,304.293 236.5,306.5C 236.831,284.327 236.497,262.327 235.5,240.5C 236.481,227.246 236.814,213.913 236.5,200.5 Z"/></g>
<g><path style="opacity:1" fill="#0e141f" d="M 401.5,211.5 C 401.259,213.898 401.926,215.898 403.5,217.5C 404.91,221.705 405.577,226.038 405.5,230.5C 405.19,233.713 405.523,236.713 406.5,239.5C 406.809,250.248 406.476,260.915 405.5,271.5C 404.532,273.607 404.198,275.941 404.5,278.5C 404.324,281.727 403.657,284.727 402.5,287.5C 401.542,287.953 400.708,288.619 400,289.5C 399.822,292.542 398.988,295.375 397.5,298C 397.989,299.138 398.322,300.305 398.5,301.5C 396.961,307.566 394.628,313.233 391.5,318.5C 389.241,319.344 388.241,321.011 388.5,323.5C 386.087,324.68 385.087,326.68 385.5,329.5C 385.672,330.492 385.338,331.158 384.5,331.5C 380.661,332.614 377.994,335.114 376.5,339C 376.743,339.902 377.077,340.735 377.5,341.5C 375.888,340.548 374.388,340.214 373,340.5C 372.167,342.667 370.667,344.167 368.5,345C 369.167,345.333 369.833,345.667 370.5,346C 369.594,347.699 369.261,349.533 369.5,351.5C 366.401,351.172 364.068,352.338 362.5,355C 362.645,355.772 362.978,356.439 363.5,357C 359.651,358.224 357.318,360.724 356.5,364.5C 354.712,364.215 353.045,364.548 351.5,365.5C 352.609,367.214 351.942,367.881 349.5,367.5C 349.649,368.552 349.483,369.552 349,370.5C 348.667,370.167 348.333,369.833 348,369.5C 346.89,371.037 345.39,371.703 343.5,371.5C 343.5,372.833 343.5,374.167 343.5,375.5C 331.111,385.03 317.778,392.03 303.5,396.5C 302.508,396.328 301.842,396.662 301.5,397.5C 298.098,398.635 294.765,399.968 291.5,401.5C 272.068,406.31 252.401,407.643 232.5,405.5C 228.705,404.383 224.705,403.717 220.5,403.5C 219.432,402.566 218.099,402.232 216.5,402.5C 216.167,402.5 215.833,402.5 215.5,402.5C 213.485,401.076 211.152,400.41 208.5,400.5C 207.833,400.5 207.167,400.5 206.5,400.5C 204.373,397.512 201.873,394.845 199,392.5C 195.829,393.328 193.162,392.328 191,389.5C 189.847,391.497 188.347,391.83 186.5,390.5C 186.457,388.439 185.791,386.272 184.5,384C 186.81,383.503 189.143,383.337 191.5,383.5C 191.5,380.833 191.5,378.167 191.5,375.5C 186.167,375.167 180.833,374.833 175.5,374.5C 175.281,373.325 175.614,372.325 176.5,371.5C 178.225,370.985 179.892,370.318 181.5,369.5C 181.291,368.914 180.957,368.414 180.5,368C 182.134,367.506 183.801,367.34 185.5,367.5C 185.471,362.794 186.638,358.46 189,354.5C 190.797,355.999 192.631,357.499 194.5,359C 196.463,359.844 197.796,359.344 198.5,357.5C 198.389,356.883 198.056,356.383 197.5,356C 198.766,355.691 199.933,355.191 201,354.5C 201.419,355.672 202.085,356.672 203,357.5C 204.618,357.402 206.118,357.402 207.5,357.5C 208.048,360.084 209.715,361.084 212.5,360.5C 212.351,361.552 212.517,362.552 213,363.5C 213.417,362.244 214.25,361.577 215.5,361.5C 217.544,362.508 219.544,363.508 221.5,364.5C 222.344,366.759 224.011,367.759 226.5,367.5C 233.736,371.203 241.236,374.203 249,376.5C 252.264,375.991 255.764,375.324 259.5,374.5C 259.833,374.5 260.167,374.5 260.5,374.5C 290.621,358.94 320.288,342.607 349.5,325.5C 354.86,321.147 356.36,315.814 354,309.5C 352.562,308.282 350.895,307.615 349,307.5C 334.845,316.162 320.345,324.162 305.5,331.5C 304.942,330.21 303.942,329.377 302.5,329C 303.236,326.979 302.403,325.479 300,324.5C 300.077,325.738 299.911,326.738 299.5,327.5C 298.5,327.167 297.833,326.5 297.5,325.5C 300.284,321.905 303.451,321.571 307,324.5C 309.52,323.793 312.02,322.96 314.5,322C 313.328,321.581 312.328,320.915 311.5,320C 312.605,317.88 312.605,315.713 311.5,313.5C 323.985,306.423 336.652,299.589 349.5,293C 350.667,291.167 351.833,289.333 353,287.5C 352.997,281.956 353.831,276.622 355.5,271.5C 362.721,266.722 370.388,262.722 378.5,259.5C 379.71,259.068 380.71,258.401 381.5,257.5C 381.5,256.833 381.833,256.5 382.5,256.5C 383.906,256.027 384.573,255.027 384.5,253.5C 385.496,253.414 386.329,253.748 387,254.5C 388.758,253.531 389.258,252.364 388.5,251C 390.965,247.78 392.965,244.28 394.5,240.5C 395.167,240.167 395.833,239.833 396.5,239.5C 397.329,234.533 397.829,229.533 398,224.5C 398.75,223.874 399.584,223.374 400.5,223C 399.923,218.396 399.756,213.562 400,208.5C 400.232,209.737 400.732,210.737 401.5,211.5 Z"/></g>
<g><path style="opacity:1" fill="#4b4e54" d="M 402.5,287.5 C 401.767,292.445 400.434,297.112 398.5,301.5C 398.322,300.305 397.989,299.138 397.5,298C 398.988,295.375 399.822,292.542 400,289.5C 400.708,288.619 401.542,287.953 402.5,287.5 Z"/></g>
<g><path style="opacity:1" fill="#4f5b6a" d="M 260.5,201.5 C 260.5,241.5 260.5,281.5 260.5,321.5C 261.5,321.5 262.5,321.5 263.5,321.5C 257.476,325.275 250.809,326.442 243.5,325C 241.934,324.392 240.6,323.558 239.5,322.5C 242.564,322.928 245.564,323.594 248.5,324.5C 248.5,316.833 248.5,309.167 248.5,301.5C 248.5,301.167 248.5,300.833 248.5,300.5C 251.78,298.86 255.114,297.193 258.5,295.5C 259.499,283.518 259.832,271.518 259.5,259.5C 259.17,239.993 259.503,220.659 260.5,201.5 Z"/></g>
<g><path style="opacity:0.004" fill="#dadbdb" d="M 100.5,297.5 C 100.833,297.5 101.167,297.5 101.5,297.5C 101.5,298.5 101.5,299.5 101.5,300.5C 100.733,299.828 100.066,298.995 99.5,298C 99.7284,297.601 100.062,297.435 100.5,297.5 Z"/></g>
<g><path style="opacity:0.008" fill="#e1e2e2" d="M 101.5,300.5 C 102.537,301.93 103.204,303.597 103.5,305.5C 101.787,304.365 101.12,302.698 101.5,300.5 Z"/></g>
<g><path style="opacity:1" fill="#1e2836" d="M 248.5,301.5 C 248.5,309.167 248.5,316.833 248.5,324.5C 245.564,323.594 242.564,322.928 239.5,322.5C 236.911,322.539 234.911,321.539 233.5,319.5C 234.5,319.5 235.5,319.5 236.5,319.5C 236.5,315.167 236.5,310.833 236.5,306.5C 240.251,304.293 244.251,302.626 248.5,301.5 Z"/></g>
<g><path style="opacity:1" fill="#131821" d="M 146.5,286.5 C 148.534,290.214 151.534,293.047 155.5,295C 166.012,299.752 176.012,305.252 185.5,311.5C 185.5,312.833 185.5,314.167 185.5,315.5C 187.677,315.586 189.677,316.253 191.5,317.5C 192.086,317.291 192.586,316.957 193,316.5C 194.101,320.136 196.268,321.136 199.5,319.5C 207.612,322.722 215.279,326.722 222.5,331.5C 223.148,333.086 223.648,334.753 224,336.5C 225.714,336.795 227.547,336.462 229.5,335.5C 233.78,337.64 238.114,339.807 242.5,342C 247.821,343.871 253.155,343.871 258.5,342C 261.243,339.962 264.243,338.462 267.5,337.5C 269.027,337.573 270.027,336.906 270.5,335.5C 279.754,329.706 289.421,324.706 299.5,320.5C 301.027,320.573 302.027,319.906 302.5,318.5C 305.008,316.076 308.008,314.41 311.5,313.5C 312.605,315.713 312.605,317.88 311.5,320C 312.328,320.915 313.328,321.581 314.5,322C 312.02,322.96 309.52,323.793 307,324.5C 303.451,321.571 300.284,321.905 297.5,325.5C 297.833,326.5 298.5,327.167 299.5,327.5C 299.911,326.738 300.077,325.738 300,324.5C 302.403,325.479 303.236,326.979 302.5,329C 303.942,329.377 304.942,330.21 305.5,331.5C 301.232,334.309 296.898,337.143 292.5,340C 281.122,345.353 270.122,351.186 259.5,357.5C 258.833,357.5 258.5,357.833 258.5,358.5C 253.149,361.076 247.816,361.076 242.5,358.5C 242.158,357.662 241.492,357.328 240.5,357.5C 228.007,351.088 215.674,344.421 203.5,337.5C 203.027,336.094 202.027,335.427 200.5,335.5C 199.508,335.672 198.842,335.338 198.5,334.5C 198.027,333.094 197.027,332.427 195.5,332.5C 184.509,327.339 173.842,321.672 163.5,315.5C 163.027,314.094 162.027,313.427 160.5,313.5C 157.411,312.261 154.411,310.761 151.5,309C 147.294,308.165 145.294,309.998 145.5,314.5C 145.726,317.517 146.726,320.184 148.5,322.5C 148.5,324.5 149.5,325.5 151.5,325.5C 151.787,328.484 153.454,329.817 156.5,329.5C 166.464,334.159 176.464,339.492 186.5,345.5C 187.684,346.688 187.684,347.855 186.5,349C 189.311,349.307 192.311,349.807 195.5,350.5C 195.34,352.199 195.506,353.866 196,355.5C 196.417,356.756 197.25,357.423 198.5,357.5C 197.796,359.344 196.463,359.844 194.5,359C 192.631,357.499 190.797,355.999 189,354.5C 186.638,358.46 185.471,362.794 185.5,367.5C 183.801,367.34 182.134,367.506 180.5,368C 180.957,368.414 181.291,368.914 181.5,369.5C 179.892,370.318 178.225,370.985 176.5,371.5C 175.614,372.325 175.281,373.325 175.5,374.5C 180.833,374.833 186.167,375.167 191.5,375.5C 191.5,378.167 191.5,380.833 191.5,383.5C 189.143,383.337 186.81,383.503 184.5,384C 185.791,386.272 186.457,388.439 186.5,390.5C 188.347,391.83 189.847,391.497 191,389.5C 193.162,392.328 195.829,393.328 199,392.5C 201.873,394.845 204.373,397.512 206.5,400.5C 200.871,399.071 195.537,397.071 190.5,394.5C 189.486,393.326 188.153,392.66 186.5,392.5C 180.193,390.013 174.193,387.013 168.5,383.5C 168.027,382.094 167.027,381.427 165.5,381.5C 165.027,380.094 164.027,379.427 162.5,379.5C 155.768,375.797 149.768,371.131 144.5,365.5C 144.027,364.094 143.027,363.427 141.5,363.5C 139.5,362.167 137.833,360.5 136.5,358.5C 136.167,357.5 135.5,356.833 134.5,356.5C 134.5,356.167 134.5,355.833 134.5,355.5C 134.167,354.5 133.5,353.833 132.5,353.5C 129.705,351.249 127.372,348.582 125.5,345.5C 125.262,343.596 124.262,342.262 122.5,341.5C 121.542,341.047 120.708,340.381 120,339.5C 113.376,328.239 107.876,316.906 103.5,305.5C 103.204,303.597 102.537,301.93 101.5,300.5C 101.5,299.5 101.5,298.5 101.5,297.5C 101.897,296.475 102.563,296.308 103.5,297C 103.167,297.333 102.833,297.667 102.5,298C 104.915,299.465 105.915,301.632 105.5,304.5C 108.349,305.591 111.182,305.591 114,304.5C 115.892,307.39 116.725,307.056 116.5,303.5C 118.167,303.5 119.833,303.5 121.5,303.5C 121.5,304.833 121.5,306.167 121.5,307.5C 122.5,307.5 123.5,307.5 124.5,307.5C 124.5,308.833 124.5,310.167 124.5,311.5C 130.533,312.995 136.7,313.995 143,314.5C 143.758,312.231 143.591,310.064 142.5,308C 139.183,307.502 135.85,307.335 132.5,307.5C 132.5,306.167 132.5,304.833 132.5,303.5C 135.85,303.665 139.183,303.498 142.5,303C 144.689,302.323 145.022,301.156 143.5,299.5C 145.828,298.276 148.161,298.276 150.5,299.5C 151.5,299 152.5,298.5 153.5,298C 152.594,294.816 150.761,293.983 148,295.5C 146.049,292.562 145.549,289.562 146.5,286.5 Z"/></g>
<g><path style="opacity:0.267" fill="#b4b5b8" d="M 211.5,307.5 C 213.027,307.427 214.027,308.094 214.5,309.5C 212.973,309.573 211.973,308.906 211.5,307.5 Z"/></g>
<g><path style="opacity:0.999" fill="#292d33" d="M 233.5,319.5 C 229.849,318.341 226.515,316.674 223.5,314.5C 223.027,313.094 222.027,312.427 220.5,312.5C 218.326,312.25 216.659,311.25 215.5,309.5C 215.351,308.448 215.517,307.448 216,306.5C 217.955,307.453 219.622,308.787 221,310.5C 221.333,309.833 221.667,309.167 222,308.5C 223.419,310.336 224.586,312.336 225.5,314.5C 227.322,314.537 229.322,314.204 231.5,313.5C 231.704,315.685 232.37,317.685 233.5,319.5 Z"/></g>
<g><path style="opacity:0.999" fill="#3f4246" d="M 185.5,311.5 C 190.5,313.664 195.167,316.331 199.5,319.5C 196.268,321.136 194.101,320.136 193,316.5C 192.586,316.957 192.086,317.291 191.5,317.5C 189.677,316.253 187.677,315.586 185.5,315.5C 185.5,314.167 185.5,312.833 185.5,311.5 Z"/></g>
<g><path style="opacity:0.29" fill="#aeb2b4" d="M 220.5,312.5 C 222.027,312.427 223.027,313.094 223.5,314.5C 221.973,314.573 220.973,313.906 220.5,312.5 Z"/></g>
<g><path style="opacity:0.325" fill="#a1a3a7" d="M 160.5,313.5 C 162.027,313.427 163.027,314.094 163.5,315.5C 161.973,315.573 160.973,314.906 160.5,313.5 Z"/></g>
<g><path style="opacity:1" fill="#5d636c" d="M 272.5,315.5 C 273.167,315.5 273.833,315.5 274.5,315.5C 272.337,317.083 270.004,318.416 267.5,319.5C 268.234,318.292 268.567,316.959 268.5,315.5C 269.833,315.5 271.167,315.5 272.5,315.5 Z"/></g>
<g><path style="opacity:0.733" fill="#8a8e92" d="M 302.5,318.5 C 302.027,319.906 301.027,320.573 299.5,320.5C 299.973,319.094 300.973,318.427 302.5,318.5 Z"/></g>
<g><path style="opacity:0.994" fill="#727578" d="M 391.5,318.5 C 391.25,320.674 390.25,322.341 388.5,323.5C 388.241,321.011 389.241,319.344 391.5,318.5 Z"/></g>
<g><path style="opacity:0.769" fill="#9ea0a2" d="M 148.5,322.5 C 149.833,323.167 150.833,324.167 151.5,325.5C 149.5,325.5 148.5,324.5 148.5,322.5 Z"/></g>
<g><path style="opacity:1" fill="#6e7178" d="M 388.5,323.5 C 388.008,325.819 387.008,327.819 385.5,329.5C 385.087,326.68 386.087,324.68 388.5,323.5 Z"/></g>
<g><path style="opacity:1" fill="#63666a" d="M 151.5,325.5 C 153.389,326.604 155.055,327.937 156.5,329.5C 153.454,329.817 151.787,328.484 151.5,325.5 Z"/></g>
<g><path style="opacity:0.537" fill="#888b8e" d="M 195.5,332.5 C 197.027,332.427 198.027,333.094 198.5,334.5C 196.973,334.573 195.973,333.906 195.5,332.5 Z"/></g>
<g><path style="opacity:0.999" fill="#4e5258" d="M 222.5,331.5 C 225.004,332.584 227.337,333.917 229.5,335.5C 227.547,336.462 225.714,336.795 224,336.5C 223.648,334.753 223.148,333.086 222.5,331.5 Z"/></g>
<g><path style="opacity:0.251" fill="#b4b7b8" d="M 200.5,335.5 C 202.027,335.427 203.027,336.094 203.5,337.5C 201.973,337.573 200.973,336.906 200.5,335.5 Z"/></g>
<g><path style="opacity:0.71" fill="#9799a0" d="M 270.5,335.5 C 270.027,336.906 269.027,337.573 267.5,337.5C 267.973,336.094 268.973,335.427 270.5,335.5 Z"/></g>
<g><path style="opacity:1" fill="#3a4046" d="M 384.5,331.5 C 382.938,335.392 380.605,338.725 377.5,341.5C 377.077,340.735 376.743,339.902 376.5,339C 377.994,335.114 380.661,332.614 384.5,331.5 Z"/></g>
<g><path style="opacity:0.008" fill="#c2c4c6" d="M 122.5,341.5 C 124.262,342.262 125.262,343.596 125.5,345.5C 123.738,344.738 122.738,343.404 122.5,341.5 Z"/></g>
<g><path style="opacity:1" fill="#343941" d="M 377.5,341.5 C 377.262,343.404 376.262,344.738 374.5,345.5C 373.094,345.973 372.427,346.973 372.5,348.5C 371.833,349.833 370.833,350.833 369.5,351.5C 369.261,349.533 369.594,347.699 370.5,346C 369.833,345.667 369.167,345.333 368.5,345C 370.667,344.167 372.167,342.667 373,340.5C 374.388,340.214 375.888,340.548 377.5,341.5 Z"/></g>
<g><path style="opacity:1" fill="#3f4b5c" d="M 260.5,374.5 C 260.822,368.642 260.489,362.975 259.5,357.5C 270.122,351.186 281.122,345.353 292.5,340C 296.898,337.143 301.232,334.309 305.5,331.5C 320.345,324.162 334.845,316.162 349,307.5C 350.895,307.615 352.562,308.282 354,309.5C 356.36,315.814 354.86,321.147 349.5,325.5C 320.288,342.607 290.621,358.94 260.5,374.5 Z"/></g>
<g><path style="opacity:0.004" fill="#dbdddf" d="M 374.5,345.5 C 374.573,347.027 373.906,348.027 372.5,348.5C 372.427,346.973 373.094,345.973 374.5,345.5 Z"/></g>
<g><path style="opacity:1" fill="#52555b" d="M 186.5,345.5 C 189.669,346.917 192.669,348.583 195.5,350.5C 192.311,349.807 189.311,349.307 186.5,349C 187.684,347.855 187.684,346.688 186.5,345.5 Z"/></g>
<g><path style="opacity:1" fill="#3c4046" d="M 369.5,351.5 C 366.145,356.855 361.812,361.188 356.5,364.5C 357.318,360.724 359.651,358.224 363.5,357C 362.978,356.439 362.645,355.772 362.5,355C 364.068,352.338 366.401,351.172 369.5,351.5 Z"/></g>
<g><path style="opacity:0.004" fill="#cdcfd1" d="M 132.5,353.5 C 133.5,353.833 134.167,354.5 134.5,355.5C 133.167,355.5 132.5,354.833 132.5,353.5 Z"/></g>
<g><path style="opacity:1" fill="#33363d" d="M 195.5,350.5 C 199.869,352.346 203.869,354.679 207.5,357.5C 206.118,357.402 204.618,357.402 203,357.5C 202.085,356.672 201.419,355.672 201,354.5C 199.933,355.191 198.766,355.691 197.5,356C 198.056,356.383 198.389,356.883 198.5,357.5C 197.25,357.423 196.417,356.756 196,355.5C 195.506,353.866 195.34,352.199 195.5,350.5 Z"/></g>
<g><path style="opacity:0.008" fill="#ebefef" d="M 134.5,356.5 C 135.5,356.833 136.167,357.5 136.5,358.5C 135.167,358.5 134.5,357.833 134.5,356.5 Z"/></g>
<g><path style="opacity:0.235" fill="#e1e1e5" d="M 240.5,357.5 C 241.492,357.328 242.158,357.662 242.5,358.5C 241.673,359.439 241.006,359.105 240.5,357.5 Z"/></g>
<g><path style="opacity:0.992" fill="#3f4449" d="M 207.5,357.5 C 210.485,358.326 213.151,359.659 215.5,361.5C 214.25,361.577 213.417,362.244 213,363.5C 212.517,362.552 212.351,361.552 212.5,360.5C 209.715,361.084 208.048,360.084 207.5,357.5 Z"/></g>
<g><path style="opacity:0.318" fill="#c2c7ce" d="M 258.5,358.5 C 258.5,357.833 258.833,357.5 259.5,357.5C 260.489,362.975 260.822,368.642 260.5,374.5C 260.167,374.5 259.833,374.5 259.5,374.5C 259.702,368.702 259.369,363.369 258.5,358.5 Z"/></g>
<g><path style="opacity:0.38" fill="#a8aaaf" d="M 141.5,363.5 C 143.027,363.427 144.027,364.094 144.5,365.5C 142.973,365.573 141.973,364.906 141.5,363.5 Z"/></g>
<g><path style="opacity:1" fill="#686b70" d="M 221.5,364.5 C 223.674,364.75 225.341,365.75 226.5,367.5C 224.011,367.759 222.344,366.759 221.5,364.5 Z"/></g>
<g><path style="opacity:1" fill="#474c53" d="M 356.5,364.5 C 353.072,369.264 348.738,372.93 343.5,375.5C 343.5,374.167 343.5,372.833 343.5,371.5C 345.39,371.703 346.89,371.037 348,369.5C 348.333,369.833 348.667,370.167 349,370.5C 349.483,369.552 349.649,368.552 349.5,367.5C 351.942,367.881 352.609,367.214 351.5,365.5C 353.045,364.548 354.712,364.215 356.5,364.5 Z"/></g>
<g><path style="opacity:0.529" fill="#8b8e91" d="M 162.5,379.5 C 164.027,379.427 165.027,380.094 165.5,381.5C 163.973,381.573 162.973,380.906 162.5,379.5 Z"/></g>
<g><path style="opacity:0.404" fill="#999b9f" d="M 165.5,381.5 C 167.027,381.427 168.027,382.094 168.5,383.5C 166.973,383.573 165.973,382.906 165.5,381.5 Z"/></g>
<g><path style="opacity:0.094" fill="#b8b9bc" d="M 186.5,392.5 C 188.153,392.66 189.486,393.326 190.5,394.5C 188.62,394.771 187.287,394.104 186.5,392.5 Z"/></g>
<g><path style="opacity:0.012" fill="#e2e3e5" d="M 301.5,397.5 C 301.842,396.662 302.508,396.328 303.5,396.5C 303.591,398.698 302.925,399.031 301.5,397.5 Z"/></g>
<g><path style="opacity:0.718" fill="#74777d" d="M 208.5,400.5 C 211.152,400.41 213.485,401.076 215.5,402.5C 212.848,402.59 210.515,401.924 208.5,400.5 Z"/></g>
<g><path style="opacity:0.004" fill="#fefffe" d="M 291.5,401.5 C 292.833,402.167 292.833,402.167 291.5,401.5 Z"/></g>
<g><path style="opacity:0.847" fill="#7c8084" d="M 216.5,402.5 C 218.099,402.232 219.432,402.566 220.5,403.5C 218.999,404.443 217.665,404.109 216.5,402.5 Z"/></g>
<g><path style="opacity:0.012" fill="#babbbf" d="M 220.5,403.5 C 224.705,403.717 228.705,404.383 232.5,405.5C 228.21,405.802 224.21,405.136 220.5,403.5 Z"/></g>
</svg>
